PathFileType	4	(X/Y/Z)	E:\Qualisys_Data\Carbon_Farble_Plate\Data\Amateur_Runner\S14\T1\S14T1V21_c3d.trc
DataRate	CameraRate	NumFrames	NumMarkers	Units	OrigDataRate	OrigDataStartFrame	OrigNumFrames
200.000000	200.000000	4	39	mm	200.000000	229	306
Frame#	Time	LSHO			RSHO			LICST			RICST			LASIS			LHEEL			RASIS			LTROC			RTROC			SACR			LTH1			LSK4			LTH2			LTH3			RHM5			LSK2			LTH4			RTH1			LTOE			RTH2			RTH3			RTH4			LLEP			RLEP			LSK1			LSK3			RSK1			LHM5			RSK2			LFT1			RSK3			RSK4			LLME			RLME			RTOE			RHEEL			RFT1			RFT2			LFT2			
		X1	Y1	Z1	X2	Y2	Z2	X3	Y3	Z3	X4	Y4	Z4	X5	Y5	Z5	X6	Y6	Z6	X7	Y7	Z7	X8	Y8	Z8	X9	Y9	Z9	X10	Y10	Z10	X11	Y11	Z11	X12	Y12	Z12	X13	Y13	Z13	X14	Y14	Z14	X15	Y15	Z15	X16	Y16	Z16	X17	Y17	Z17	X18	Y18	Z18	X19	Y19	Z19	X20	Y20	Z20	X21	Y21	Z21	X22	Y22	Z22	X23	Y23	Z23	X24	Y24	Z24	X25	Y25	Z25	X26	Y26	Z26	X27	Y27	Z27	X28	Y28	Z28	X29	Y29	Z29	X30	Y30	Z30	X31	Y31	Z31	X32	Y32	Z32	X33	Y33	Z33	X34	Y34	Z34	X35	Y35	Z35	X36	Y36	Z36	X37	Y37	Z37	X38	Y38	Z38	X39	Y39	Z39	

230	1.145	1642.684814453125	1473.43896484375	-525.7943115234375	1718.443603515625	1461.11279296875	-247.3416595458984	1677.89990234375	1001.210510253906	-494.7135925292969	1699.9951171875	1015.064270019531	-221.3891754150391	1721.983032226562	954.505615234375	-465.2904357910156	1861.465698242188	82.23396301269531	-372.450927734375	1723.37451171875	970.0491333007812	-235.9217834472656	1591.534790039062	871.7217407226562	-512.7057495117188	1565.312377929688	931.0052490234376	-188.8673858642578	1550.488037109375	1005.470397949219	-364.1102600097656	1742.650146484375	664.7509765625	-517.0096435546875	1796.48291015625	295.3530578613281	-454.435791015625	1676.906372070312	640.4119873046875	-479.6598205566406	1792.582153320312	583.224609375	-486.4148254394531	1075.093383789062	318.2385559082031	-215.5440826416016	1770.483154296875	390.2101135253906	-469.9124755859375	1721.501342773438	555.2593383789062	-459.6917724609375	1631.34375	668.3406982421875	-178.4393768310547	2094.1279296875	184.3075256347656	-433.7658996582031	1557.889526367188	693.3715209960938	-171.4993133544922	1603.591430664062	571.50537109375	-196.0327301025391	1523.743896484375	598.196533203125	-186.1948852539062	1793.848266601562	512.1170043945312	-473.8389892578125	1515.64306640625	527.3956909179688	-187.8866577148438	1849.437866210938	412.0104064941406	-475.4047241210938	1874.843017578125	314.1060180664062	-463.4697875976562	1413.702514648438	459.8624572753906	-192.2963562011719	2036.980712890625	129.9543304443359	-480.3066711425781	1388.792724609375	542.4620361328125	-197.2797546386719	1886.51806640625	70.26799774169922	-347.3594665527344	1314.5615234375	436.2974548339844	-215.5718688964844	1299.173706054688	514.4755249023438	-220.5181884765625	1895.794555664062	130.2874755859375	-438.9872741699219	1143.909423828125	444.3205261230469	-254.2779998779297	1089.656005859375	236.5094604492188	-261.4699401855469	1129.79150390625	486.3873901367188	-321.3900756835938	1103.38916015625	467.6737365722656	-351.5762634277344	1104.351196289062	492.9515075683594	-295.7444458007812	1875.310791015625	56.42058181762695	-399.3135986328125
231	1.15	1663.75390625	1469.221923828125	-527.668701171875	1736.495727539062	1457.711791992188	-248.1682739257812	1697.768310546875	997.6641235351562	-495.3974914550781	1719.912841796875	1011.591003417969	-222.2004241943359	1741.516723632812	951.1331787109376	-465.7598266601562	1874.21337890625	77.74051666259766	-370.875244140625	1743.523193359375	966.802490234375	-236.4369506835938	1610.284423828125	868.3696899414062	-512.5573120117188	1586.102661132812	926.6638793945312	-188.1930236816406	1570.005493164062	1001.909606933594	-364.572509765625	1762.595336914062	662.0698852539062	-516.5148315429688	1811.87841796875	291.4580688476562	-453.0360717773438	1696.378784179688	637.3357543945312	-480.0149536132812	1812.189575195312	579.8135986328125	-485.6973571777344	1098.261962890625	321.2904968261719	-217.6139526367188	1786.9169921875	386.5593872070312	-469.0799865722656	1740.446411132812	552.1080932617188	-460.0224914550781	1655.285766601562	664.2407836914062	-178.458740234375	2107.71484375	176.7079772949219	-432.8129577636719	1581.614135742188	688.5670776367188	-171.0285186767578	1628.722900390625	566.8607788085938	-195.8652801513672	1548.499145507812	592.570556640625	-185.2236785888672	1812.6318359375	508.4746398925781	-474.1517333984375	1541.33935546875	521.2000122070312	-187.9503631591797	1866.031860351562	407.2990112304688	-475.4512634277344	1890.236938476562	308.4823608398438	-462.7917785644531	1438.913818359375	456.3177185058594	-192.1558685302734	2049.994873046875	122.5462417602539	-479.2451477050781	1415.831176757812	538.9379272460938	-196.1007232666016	1899.217163085938	65.57215881347656	-345.4291076660156	1339.448486328125	434.6553344726562	-215.9937896728516	1325.398681640625	513.4102783203125	-219.8533935546875	1908.695556640625	125.0395202636719	-437.3041687011719	1169.209716796875	446.700927734375	-255.1251068115234	1111.776489257812	239.7037048339844	-264.811279296875	1155.609375	489.5292053222656	-322.35791015625	1129.2314453125	471.3088989257812	-353.0891418457031	1130.539672851562	496.2477416992188	-296.7026672363281	1887.275390625	51.28981018066406	-397.4573364257812
232	1.155	1684.283935546875	1464.498657226562	-528.9645385742188	1755.122802734375	1454.165893554688	-248.8969268798828	1717.239501953125	994.0834350585938	-495.7397766113281	1739.761596679688	1007.777282714844	-222.7823028564453	1761.12109375	947.4585571289062	-466.0767211914062	1885.306396484375	73.01545715332031	-368.9054260253906	1763.639038085938	963.1044311523438	-236.9502716064453	1629.426635742188	864.5759887695312	-512.7659301757812	1606.822143554688	922.0062255859376	-187.9043884277344	1589.630249023438	997.7815551757812	-364.2821350097656	1783.030395507812	659.026611328125	-515.4786376953125	1826.741088867188	287.6365661621094	-451.2964782714844	1716.108032226562	634.3922119140625	-480.4963989257812	1831.714233398438	576.625	-484.8307495117188	1121.8291015625	323.9504699707031	-219.2952575683594	1803.14697265625	382.7086486816406	-467.9714965820312	1759.914184570312	548.73486328125	-460.6626281738281	1679.350341796875	659.7081909179688	-179.2142944335938	2120.457763671875	167.9505462646484	-431.6297302246094	1605.353759765625	683.0831909179688	-170.5717010498047	1654.02587890625	561.9874267578125	-195.6333923339844	1573.778198242188	586.6756591796875	-184.1699523925781	1831.913696289062	505.1791381835938	-473.6218872070312	1567.771484375	515.7405395507812	-186.3353881835938	1882.821655273438	401.9749450683594	-475.3106384277344	1905.360717773438	303.2720947265625	-462.1903686523438	1464.464599609375	452.4414672851562	-191.9218444824219	2061.803955078125	115.0307846069336	-477.6900024414062	1442.705078125	535.5455322265625	-195.2430419921875	1910.001708984375	60.80029678344727	-344.2054138183594	1364.62744140625	432.8004760742188	-216.8558502197266	1351.999633789062	511.5978698730469	-219.235107421875	1920.483154296875	119.5852966308594	-436.0359802246094	1194.66552734375	448.2575988769531	-256.2743835449219	1135.21728515625	242.0967407226562	-265.9552917480469	1181.75146484375	491.9303283691406	-323.8941650390625	1156.099243164062	474.4680480957031	-354.1697082519531	1156.9013671875	498.6834716796875	-297.7275085449219	1898.20751953125	46.8582649230957	-396.2576599121094
233	1.16	1705.397094726562	1459.46142578125	-530.7230224609375	1773.639892578125	1450.03515625	-248.9307250976562	1735.987060546875	990.1843872070312	-496.0527954101562	1759.591674804688	1003.602661132812	-223.5203247070312	1780.026611328125	943.6038818359376	-466.6891784667969	1895.432861328125	68.34187316894531	-367.5909729003906	1783.6806640625	959.2974853515624	-237.6480865478516	1648.112182617188	860.7827758789062	-512.552001953125	1627.901977539062	917.08642578125	-187.484375	1609.214721679688	993.9652709960938	-363.6622009277344	1802.648193359375	655.8895263671875	-513.5728149414062	1841.431030273438	283.3475036621094	-450.3034057617188	1736.147705078125	631.1561889648438	-480.7471923828125	1851.426513671875	573.2819213867188	-483.8865051269531	1146.293334960938	326.2026977539062	-221.2040100097656	1819.4423828125	379.2276916503906	-467.6172180175781	1779.513916015625	545.2652587890625	-461.0640563964844	1703.47021484375	655.1163940429688	-179.1800384521484	2132.677490234375	158.3794555664062	-430.4026794433594	1629.318603515625	677.58056640625	-170.0920715332031	1679.822631835938	557.087158203125	-195.2359619140625	1598.97705078125	580.5136108398438	-183.5015869140625	1851.356567382812	501.3124084472656	-473.2017211914062	1593.752563476562	509.4887084960938	-185.8817291259766	1899.374145507812	396.5428466796875	-475.0865173339844	1920.027954101562	297.5154724121094	-461.3232421875	1490.522705078125	447.9754943847656	-191.6949615478516	2072.638427734375	106.1931533813477	-476.4767456054688	1469.9072265625	531.5223388671875	-194.0146484375	1919.36669921875	55.446044921875	-342.542236328125	1390.515380859375	430.236572265625	-216.8964080810547	1378.965942382812	509.5070190429688	-218.7771759033203	1931.861694335938	113.8406219482422	-434.6852416992188	1221.000244140625	449.1005859375	-257.0207824707031	1159.111938476562	244.4124603271484	-267.5946655273438	1208.848510742188	494.0100402832031	-324.2103576660156	1183.015502929688	476.4931030273438	-354.5519714355469	1184.11669921875	500.8190002441406	-298.0745239257812	1907.9716796875	41.69426345825195	-394.4676513671875
